<svg xmlns="http://www.w3.org/2000/svg" viewBox="0 0 512 512" role="img" aria-labelledby="title desc">
  <title id="title">Deskii application icon</title>
  <desc id="desc">A friendly close-up of Milk, Deskii's founding desktop companion.</desc>
  <defs>
    <linearGradient id="background" x1="64" y1="40" x2="448" y2="472" gradientUnits="userSpaceOnUse">
      <stop stop-color="#9BF1E6"/>
      <stop offset="1" stop-color="#69B9E6"/>
    </linearGradient>
    <filter id="mascot-shadow" x="-20%" y="-20%" width="140%" height="160%">
      <feDropShadow dx="0" dy="14" stdDeviation="14" flood-color="#0A0E17" flood-opacity=".22"/>
    </filter>
    <clipPath id="icon-clip">
      <rect x="16" y="16" width="480" height="480" rx="120"/>
    </clipPath>
    <clipPath id="body-clip">
      <path d="M137 190 180 116h129l66 74v304H137Z"/>
    </clipPath>
  </defs>
  <rect x="16" y="16" width="480" height="480" rx="120" fill="url(#background)"/>
  <g clip-path="url(#icon-clip)" filter="url(#mascot-shadow)">
    <path d="M137 190 180 116h129l66 74v304H137Z" fill="#FFFDF7"/>
    <path d="m309 116 66 74v304l-48-31V179Z" fill="#EDE7D9"/>
    <path d="M176 116h137l27 31H158Z" fill="#F3EFE4"/>
    <rect x="177" y="87" width="139" height="48" rx="14" fill="#4E91C6"/>
    <g clip-path="url(#body-clip)">
      <rect x="120" y="337" width="270" height="66" fill="#BCEFF1"/>
      <rect x="120" y="403" width="270" height="100" fill="#579DCF"/>
      <path d="M327 337h62v166l-62-40Z" fill="#4385B7"/>
    </g>
    <circle cx="210" cy="257" r="17" fill="#0A0E17"/>
    <circle cx="299" cy="257" r="17" fill="#0A0E17"/>
    <path d="M228 284c18 16 38 16 57 0" fill="none" stroke="#0A0E17" stroke-width="15" stroke-linecap="round"/>
    <circle cx="204" cy="251" r="5" fill="#FFFFFF" fill-opacity=".8"/>
    <circle cx="293" cy="251" r="5" fill="#FFFFFF" fill-opacity=".8"/>
  </g>
</svg>
